<?xml version="1.0" standalone="no"?><!DOCTYPE svg PUBLIC "-//W3C//DTD SVG 1.1//EN" "http://www.w3.org/Graphics/SVG/1.1/DTD/svg11.dtd"><svg t="1669215266528" class="icon" viewBox="0 0 1024 1024" version="1.1" xmlns="http://www.w3.org/2000/svg" p-id="4605" width="32" height="32" xmlns:xlink="http://www.w3.org/1999/xlink"><path d="M512 793.6c-153.6 0-281.6-128-281.6-281.6 0-153.6 128-281.6 281.6-281.6 153.6 0 281.6 128 281.6 281.6 0 153.6-128 281.6-281.6 281.6z m0-531.2C377.6 262.4 262.4 377.6 262.4 512c0 134.4 108.8 249.6 249.6 249.6s249.6-108.8 249.6-249.6c0-134.4-115.2-249.6-249.6-249.6z" fill="#17A09A" p-id="4606"/><path d="M473.6 268.8v19.2l19.2 19.2 12.8-19.2 38.4-19.2-32-25.6zM422.4 268.8l6.4 12.8h6.4l25.6 44.8-12.8 12.8-12.8-12.8h-6.4l-6.4 12.8-19.2 19.2-19.2 6.4-6.4 6.4-19.2 19.2v19.2l-12.8-12.8-25.6 6.4h-6.4v25.6H320l25.6-12.8-6.4 25.6h12.8v19.2h6.4l19.2-6.4h12.8l19.2 6.4 12.8 6.4 12.8 6.4 25.6 25.6 19.2 6.4 6.4 12.8v12.8l-6.4 12.8v19.2l-6.4 6.4-25.6 19.2v6.4l-32 44.8v44.8l19.2 6.4-19.2 12.8-25.6-25.6v-19.2l-6.4-12.8-6.4-89.6-25.6-32v-19.2l12.8-25.6-12.8-12.8-6.4 6.4-76.8-57.6 57.6-96zM640 288l-19.2 32h19.2l-32 32v19.2h-19.2l6.4 32-25.6 38.4v25.6l19.2 32h51.2v25.6l19.2 25.6-12.8 6.4 12.8 44.8-6.4 6.4 12.8 19.2h25.6l32-38.4v-19.2h6.4l6.4-44.8h6.4l25.6-32-19.2-102.4S678.4 294.4 640 288z" fill="#17A09A" p-id="4607"/></svg>