<?xml version="1.0" standalone="no"?><!DOCTYPE svg PUBLIC "-//W3C//DTD SVG 1.1//EN" "http://www.w3.org/Graphics/SVG/1.1/DTD/svg11.dtd"><svg t="1669244820479" class="icon" viewBox="0 0 1024 1024" version="1.1" xmlns="http://www.w3.org/2000/svg" p-id="14800" width="32" height="32" xmlns:xlink="http://www.w3.org/1999/xlink"><path d="M916.6 210.2H107.4c-17.7 0-32-14.3-32-32s14.3-32 32-32h809.2c17.7 0 32 14.3 32 32s-14.3 32-32 32zM714.3 544H107.4c-17.7 0-32-14.3-32-32s14.3-32 32-32h606.9c17.7 0 32 14.3 32 32s-14.3 32-32 32zM916.6 877.8H107.4c-17.7 0-32-14.3-32-32s14.3-32 32-32h809.2c17.7 0 32 14.3 32 32s-14.3 32-32 32z" p-id="14801" fill="#2c2c2c"></path></svg>